<mxfile host="app.diagrams.net" modified="2023-05-11T02:59:34.340Z" agent="Mozilla/5.0 (Macintosh; Intel Mac OS X 10_15_7) AppleWebKit/537.36 (KHTML, like Gecko) Chrome/113.0.0.0 Safari/537.36" etag="b4JJ_IN_IlQ3GTYnu-6k" version="21.1.2" type="github">
  <diagram name="Page-1" id="e56a1550-8fbb-45ad-956c-1786394a9013">
    <mxGraphModel dx="3826" dy="1489" grid="1" gridSize="10" guides="1" tooltips="1" connect="1" arrows="1" fold="1" page="1" pageScale="1" pageWidth="1100" pageHeight="850" background="none" math="0" shadow="0">
      <root>
        <mxCell id="0" />
        <mxCell id="1" parent="0" />
        <mxCell id="y9HhmYNWer4QtPoeqVv9-40" value="" style="shape=requiredInterface;html=1;verticalLabelPosition=bottom;sketch=0;rotation=-170;" parent="1" vertex="1">
          <mxGeometry x="-49.53" y="899.18" width="10" height="25.43" as="geometry" />
        </mxCell>
        <mxCell id="4mAQNpWLt4tQU0ZCI15O-1" style="edgeStyle=orthogonalEdgeStyle;rounded=0;orthogonalLoop=1;jettySize=auto;html=1;exitX=0.5;exitY=1;exitDx=0;exitDy=0;" parent="1" source="4mAQNpWLt4tQU0ZCI15O-2" edge="1">
          <mxGeometry relative="1" as="geometry">
            <mxPoint x="280" y="290" as="targetPoint" />
          </mxGeometry>
        </mxCell>
        <mxCell id="4mAQNpWLt4tQU0ZCI15O-2" value="CUSTOMER" style="whiteSpace=wrap;html=1;align=center;fillColor=#C4C4C4;strokeColor=#36393d;" parent="1" vertex="1">
          <mxGeometry x="250" y="270" width="100" height="40" as="geometry" />
        </mxCell>
        <mxCell id="4mAQNpWLt4tQU0ZCI15O-3" value="Email" style="ellipse;whiteSpace=wrap;html=1;align=center;fontStyle=4;" parent="1" vertex="1">
          <mxGeometry x="116" y="350" width="100" height="40" as="geometry" />
        </mxCell>
        <mxCell id="4mAQNpWLt4tQU0ZCI15O-4" value="First name" style="ellipse;whiteSpace=wrap;html=1;align=center;" parent="1" vertex="1">
          <mxGeometry x="70" y="270" width="100" height="40" as="geometry" />
        </mxCell>
        <mxCell id="4mAQNpWLt4tQU0ZCI15O-5" value="Last name" style="ellipse;whiteSpace=wrap;html=1;align=center;" parent="1" vertex="1">
          <mxGeometry x="390" y="350" width="100" height="40" as="geometry" />
        </mxCell>
        <mxCell id="4mAQNpWLt4tQU0ZCI15O-6" value="Phone number" style="ellipse;whiteSpace=wrap;html=1;align=center;fontStyle=0;" parent="1" vertex="1">
          <mxGeometry x="250" y="150" width="100" height="40" as="geometry" />
        </mxCell>
        <mxCell id="4mAQNpWLt4tQU0ZCI15O-9" value="" style="endArrow=none;html=1;rounded=0;exitX=0;exitY=1;exitDx=0;exitDy=0;entryX=1;entryY=0;entryDx=0;entryDy=0;" parent="1" source="4mAQNpWLt4tQU0ZCI15O-2" target="4mAQNpWLt4tQU0ZCI15O-3" edge="1">
          <mxGeometry relative="1" as="geometry">
            <mxPoint x="300" y="269.5" as="sourcePoint" />
            <mxPoint x="260" y="370" as="targetPoint" />
          </mxGeometry>
        </mxCell>
        <mxCell id="4mAQNpWLt4tQU0ZCI15O-10" value="" style="endArrow=none;html=1;rounded=0;exitX=0.5;exitY=1;exitDx=0;exitDy=0;entryX=0.5;entryY=0;entryDx=0;entryDy=0;" parent="1" source="4mAQNpWLt4tQU0ZCI15O-6" target="4mAQNpWLt4tQU0ZCI15O-2" edge="1">
          <mxGeometry relative="1" as="geometry">
            <mxPoint x="110" y="269.5" as="sourcePoint" />
            <mxPoint x="270" y="269.5" as="targetPoint" />
          </mxGeometry>
        </mxCell>
        <mxCell id="4mAQNpWLt4tQU0ZCI15O-11" value="" style="endArrow=none;html=1;rounded=0;entryX=0;entryY=0.5;entryDx=0;entryDy=0;exitX=1;exitY=0.5;exitDx=0;exitDy=0;" parent="1" source="4mAQNpWLt4tQU0ZCI15O-4" target="4mAQNpWLt4tQU0ZCI15O-2" edge="1">
          <mxGeometry relative="1" as="geometry">
            <mxPoint x="240" y="370" as="sourcePoint" />
            <mxPoint x="250" y="279.5" as="targetPoint" />
          </mxGeometry>
        </mxCell>
        <mxCell id="4mAQNpWLt4tQU0ZCI15O-12" value="" style="endArrow=none;html=1;rounded=0;exitX=0;exitY=0;exitDx=0;exitDy=0;entryX=1;entryY=1;entryDx=0;entryDy=0;" parent="1" source="4mAQNpWLt4tQU0ZCI15O-5" target="4mAQNpWLt4tQU0ZCI15O-2" edge="1">
          <mxGeometry relative="1" as="geometry">
            <mxPoint x="100" y="370" as="sourcePoint" />
            <mxPoint x="260" y="370" as="targetPoint" />
          </mxGeometry>
        </mxCell>
        <mxCell id="4mAQNpWLt4tQU0ZCI15O-13" value="ORDER" style="whiteSpace=wrap;html=1;align=center;fillColor=#C4C4C4;strokeColor=#36393d;" parent="1" vertex="1">
          <mxGeometry x="600" y="640" width="100" height="40" as="geometry" />
        </mxCell>
        <mxCell id="4mAQNpWLt4tQU0ZCI15O-14" value="PLACES" style="shape=rhombus;perimeter=rhombusPerimeter;whiteSpace=wrap;html=1;align=center;" parent="1" vertex="1">
          <mxGeometry x="360.55" y="470" width="120" height="60" as="geometry" />
        </mxCell>
        <mxCell id="4mAQNpWLt4tQU0ZCI15O-18" value="&lt;u&gt;Order number&lt;/u&gt;" style="ellipse;whiteSpace=wrap;html=1;align=center;" parent="1" vertex="1">
          <mxGeometry x="683.7" y="480" width="100" height="40" as="geometry" />
        </mxCell>
        <mxCell id="4mAQNpWLt4tQU0ZCI15O-19" value="&lt;span&gt;Email&lt;/span&gt;" style="ellipse;whiteSpace=wrap;html=1;align=center;fontStyle=0" parent="1" vertex="1">
          <mxGeometry x="683.7" y="800" width="100" height="40" as="geometry" />
        </mxCell>
        <mxCell id="4mAQNpWLt4tQU0ZCI15O-20" value="Phone number" style="ellipse;whiteSpace=wrap;html=1;align=center;fontStyle=0;" parent="1" vertex="1">
          <mxGeometry x="380.55" y="690" width="100" height="40" as="geometry" />
        </mxCell>
        <mxCell id="4mAQNpWLt4tQU0ZCI15O-22" value="" style="endArrow=none;html=1;rounded=0;entryX=0;entryY=1;entryDx=0;entryDy=0;exitX=0.5;exitY=0;exitDx=0;exitDy=0;" parent="1" source="4mAQNpWLt4tQU0ZCI15O-13" target="4mAQNpWLt4tQU0ZCI15O-18" edge="1">
          <mxGeometry relative="1" as="geometry">
            <mxPoint x="570" y="500" as="sourcePoint" />
            <mxPoint x="740" y="499.5" as="targetPoint" />
          </mxGeometry>
        </mxCell>
        <mxCell id="4mAQNpWLt4tQU0ZCI15O-23" value="" style="endArrow=none;html=1;rounded=0;entryX=0;entryY=0;entryDx=0;entryDy=0;exitX=0.5;exitY=1;exitDx=0;exitDy=0;" parent="1" source="4mAQNpWLt4tQU0ZCI15O-13" target="4mAQNpWLt4tQU0ZCI15O-19" edge="1">
          <mxGeometry relative="1" as="geometry">
            <mxPoint x="620" y="499.5" as="sourcePoint" />
            <mxPoint x="780" y="499.5" as="targetPoint" />
          </mxGeometry>
        </mxCell>
        <mxCell id="4mAQNpWLt4tQU0ZCI15O-24" value="" style="endArrow=none;html=1;rounded=0;entryX=1;entryY=0;entryDx=0;entryDy=0;exitX=0;exitY=1;exitDx=0;exitDy=0;" parent="1" source="4mAQNpWLt4tQU0ZCI15O-13" target="4mAQNpWLt4tQU0ZCI15O-20" edge="1">
          <mxGeometry relative="1" as="geometry">
            <mxPoint x="760" y="640" as="sourcePoint" />
            <mxPoint x="790" y="519" as="targetPoint" />
          </mxGeometry>
        </mxCell>
        <mxCell id="4mAQNpWLt4tQU0ZCI15O-48" value="" style="endArrow=none;html=1;rounded=0;exitX=1;exitY=1;exitDx=0;exitDy=0;entryX=0.5;entryY=0;entryDx=0;entryDy=0;" parent="1" source="4mAQNpWLt4tQU0ZCI15O-77" target="4mAQNpWLt4tQU0ZCI15O-13" edge="1">
          <mxGeometry relative="1" as="geometry">
            <mxPoint x="232" y="399" as="sourcePoint" />
            <mxPoint x="290" y="370" as="targetPoint" />
          </mxGeometry>
        </mxCell>
        <mxCell id="4mAQNpWLt4tQU0ZCI15O-76" value="" style="endArrow=none;html=1;rounded=0;exitX=0.5;exitY=1;exitDx=0;exitDy=0;entryX=0.4;entryY=0;entryDx=0;entryDy=0;entryPerimeter=0;" parent="1" source="4mAQNpWLt4tQU0ZCI15O-13" target="4mAQNpWLt4tQU0ZCI15O-124" edge="1">
          <mxGeometry relative="1" as="geometry">
            <mxPoint x="563" y="540" as="sourcePoint" />
            <mxPoint x="630" y="830" as="targetPoint" />
          </mxGeometry>
        </mxCell>
        <mxCell id="4mAQNpWLt4tQU0ZCI15O-77" value="Order date" style="ellipse;whiteSpace=wrap;html=1;align=center;fontStyle=0;" parent="1" vertex="1">
          <mxGeometry x="520" y="480" width="100" height="40" as="geometry" />
        </mxCell>
        <mxCell id="4mAQNpWLt4tQU0ZCI15O-102" value="Address line 1" style="ellipse;whiteSpace=wrap;html=1;align=center;" parent="1" vertex="1">
          <mxGeometry x="1120" y="756.26" width="100" height="40" as="geometry" />
        </mxCell>
        <mxCell id="4mAQNpWLt4tQU0ZCI15O-103" value="Address line 2" style="ellipse;whiteSpace=wrap;html=1;align=center;" parent="1" vertex="1">
          <mxGeometry x="1120" y="806.26" width="100" height="40" as="geometry" />
        </mxCell>
        <mxCell id="4mAQNpWLt4tQU0ZCI15O-104" value="Suburb" style="ellipse;whiteSpace=wrap;html=1;align=center;" parent="1" vertex="1">
          <mxGeometry x="1120" y="856.26" width="100" height="40" as="geometry" />
        </mxCell>
        <mxCell id="4mAQNpWLt4tQU0ZCI15O-105" value="City" style="ellipse;whiteSpace=wrap;html=1;align=center;" parent="1" vertex="1">
          <mxGeometry x="1120" y="906.26" width="100" height="40" as="geometry" />
        </mxCell>
        <mxCell id="4mAQNpWLt4tQU0ZCI15O-106" value="Postcode" style="ellipse;whiteSpace=wrap;html=1;align=center;" parent="1" vertex="1">
          <mxGeometry x="1120" y="956.26" width="100" height="40" as="geometry" />
        </mxCell>
        <mxCell id="4mAQNpWLt4tQU0ZCI15O-107" value="" style="endArrow=none;html=1;rounded=0;exitX=1;exitY=0.5;exitDx=0;exitDy=0;entryX=0;entryY=1;entryDx=0;entryDy=0;" parent="1" source="4mAQNpWLt4tQU0ZCI15O-102" target="lCz2tFZUgEaHDEE969v2-13" edge="1">
          <mxGeometry relative="1" as="geometry">
            <mxPoint x="1200" y="851.26" as="sourcePoint" />
            <mxPoint x="1270" y="680.4300000000001" as="targetPoint" />
          </mxGeometry>
        </mxCell>
        <mxCell id="4mAQNpWLt4tQU0ZCI15O-108" value="" style="endArrow=none;html=1;rounded=0;exitX=1;exitY=0.5;exitDx=0;exitDy=0;entryX=0.25;entryY=1;entryDx=0;entryDy=0;" parent="1" source="4mAQNpWLt4tQU0ZCI15O-103" target="lCz2tFZUgEaHDEE969v2-13" edge="1">
          <mxGeometry relative="1" as="geometry">
            <mxPoint x="1190" y="856.26" as="sourcePoint" />
            <mxPoint x="1336.000000000001" y="876.26" as="targetPoint" />
          </mxGeometry>
        </mxCell>
        <mxCell id="4mAQNpWLt4tQU0ZCI15O-109" value="" style="endArrow=none;html=1;rounded=0;exitX=1;exitY=0.5;exitDx=0;exitDy=0;entryX=0.5;entryY=1;entryDx=0;entryDy=0;" parent="1" source="4mAQNpWLt4tQU0ZCI15O-104" target="lCz2tFZUgEaHDEE969v2-13" edge="1">
          <mxGeometry relative="1" as="geometry">
            <mxPoint x="1200" y="866.26" as="sourcePoint" />
            <mxPoint x="1336.000000000001" y="876.26" as="targetPoint" />
          </mxGeometry>
        </mxCell>
        <mxCell id="4mAQNpWLt4tQU0ZCI15O-110" value="" style="endArrow=none;html=1;rounded=0;exitX=1;exitY=0.5;exitDx=0;exitDy=0;entryX=0.75;entryY=1;entryDx=0;entryDy=0;" parent="1" source="4mAQNpWLt4tQU0ZCI15O-105" target="lCz2tFZUgEaHDEE969v2-13" edge="1">
          <mxGeometry relative="1" as="geometry">
            <mxPoint x="1210" y="876.26" as="sourcePoint" />
            <mxPoint x="1336.000000000001" y="876.26" as="targetPoint" />
          </mxGeometry>
        </mxCell>
        <mxCell id="4mAQNpWLt4tQU0ZCI15O-111" value="" style="endArrow=none;html=1;rounded=0;exitX=1;exitY=0.5;exitDx=0;exitDy=0;entryX=1;entryY=1;entryDx=0;entryDy=0;" parent="1" source="4mAQNpWLt4tQU0ZCI15O-106" target="lCz2tFZUgEaHDEE969v2-13" edge="1">
          <mxGeometry relative="1" as="geometry">
            <mxPoint x="1300" y="1155.83" as="sourcePoint" />
            <mxPoint x="1416.000000000001" y="1145.83" as="targetPoint" />
          </mxGeometry>
        </mxCell>
        <mxCell id="4mAQNpWLt4tQU0ZCI15O-116" value="INCLUDES" style="shape=rhombus;perimeter=rhombusPerimeter;whiteSpace=wrap;html=1;align=center;" parent="1" vertex="1">
          <mxGeometry x="842.5" y="470" width="115" height="60" as="geometry" />
        </mxCell>
        <mxCell id="4mAQNpWLt4tQU0ZCI15O-118" value="" style="endArrow=none;html=1;rounded=0;entryX=0;entryY=1;entryDx=0;entryDy=0;exitX=1;exitY=0.5;exitDx=0;exitDy=0;" parent="1" source="4mAQNpWLt4tQU0ZCI15O-116" target="4mAQNpWLt4tQU0ZCI15O-125" edge="1">
          <mxGeometry relative="1" as="geometry">
            <mxPoint x="830" y="320" as="sourcePoint" />
            <mxPoint x="1130" y="340" as="targetPoint" />
          </mxGeometry>
        </mxCell>
        <mxCell id="4mAQNpWLt4tQU0ZCI15O-119" value="1" style="resizable=0;html=1;whiteSpace=wrap;align=right;verticalAlign=bottom;" parent="4mAQNpWLt4tQU0ZCI15O-118" connectable="0" vertex="1">
          <mxGeometry x="1" relative="1" as="geometry">
            <mxPoint x="-122" y="175" as="offset" />
          </mxGeometry>
        </mxCell>
        <mxCell id="4mAQNpWLt4tQU0ZCI15O-120" value="" style="endArrow=none;html=1;rounded=0;exitX=0.5;exitY=1;exitDx=0;exitDy=0;entryX=0;entryY=0.5;entryDx=0;entryDy=0;" parent="1" source="4mAQNpWLt4tQU0ZCI15O-2" target="4mAQNpWLt4tQU0ZCI15O-14" edge="1">
          <mxGeometry relative="1" as="geometry">
            <mxPoint x="500" y="610" as="sourcePoint" />
            <mxPoint x="660" y="610" as="targetPoint" />
          </mxGeometry>
        </mxCell>
        <mxCell id="4mAQNpWLt4tQU0ZCI15O-121" value="1" style="resizable=0;html=1;whiteSpace=wrap;align=right;verticalAlign=bottom;" parent="4mAQNpWLt4tQU0ZCI15O-120" connectable="0" vertex="1">
          <mxGeometry x="1" relative="1" as="geometry">
            <mxPoint x="10" y="-10" as="offset" />
          </mxGeometry>
        </mxCell>
        <mxCell id="4mAQNpWLt4tQU0ZCI15O-124" value="Order total" style="ellipse;whiteSpace=wrap;html=1;align=center;dashed=1;" parent="1" vertex="1">
          <mxGeometry x="590" y="840" width="100" height="40" as="geometry" />
        </mxCell>
        <mxCell id="4mAQNpWLt4tQU0ZCI15O-125" value="PAYMENT METHOD" style="whiteSpace=wrap;html=1;align=center;fillColor=#C4C4C4;strokeColor=#36393d;" parent="1" vertex="1">
          <mxGeometry x="1080" y="275" width="100" height="40" as="geometry" />
        </mxCell>
        <mxCell id="4mAQNpWLt4tQU0ZCI15O-126" value="&lt;u&gt;Payment Type&lt;/u&gt;" style="ellipse;whiteSpace=wrap;html=1;align=center;" parent="1" vertex="1">
          <mxGeometry x="925" y="195" width="100" height="40" as="geometry" />
        </mxCell>
        <mxCell id="4mAQNpWLt4tQU0ZCI15O-127" value="&lt;span&gt;Billing address&lt;/span&gt;" style="ellipse;whiteSpace=wrap;html=1;align=center;fontStyle=0" parent="1" vertex="1">
          <mxGeometry x="1080" y="155" width="100" height="40" as="geometry" />
        </mxCell>
        <mxCell id="4mAQNpWLt4tQU0ZCI15O-128" value="Name on card" style="ellipse;whiteSpace=wrap;html=1;align=center;fontStyle=0;" parent="1" vertex="1">
          <mxGeometry x="1240" y="195" width="100" height="40" as="geometry" />
        </mxCell>
        <mxCell id="4mAQNpWLt4tQU0ZCI15O-129" value="Expiration date" style="ellipse;whiteSpace=wrap;html=1;align=center;fontStyle=0;" parent="1" vertex="1">
          <mxGeometry x="1270" y="275" width="100" height="40" as="geometry" />
        </mxCell>
        <mxCell id="4mAQNpWLt4tQU0ZCI15O-130" value="" style="endArrow=none;html=1;rounded=0;entryX=1;entryY=1;entryDx=0;entryDy=0;exitX=0;exitY=0;exitDx=0;exitDy=0;" parent="1" source="4mAQNpWLt4tQU0ZCI15O-125" target="4mAQNpWLt4tQU0ZCI15O-126" edge="1">
          <mxGeometry relative="1" as="geometry">
            <mxPoint x="1260" y="125" as="sourcePoint" />
            <mxPoint x="1430" y="124.5" as="targetPoint" />
          </mxGeometry>
        </mxCell>
        <mxCell id="4mAQNpWLt4tQU0ZCI15O-131" value="" style="endArrow=none;html=1;rounded=0;entryX=0.5;entryY=1;entryDx=0;entryDy=0;exitX=0.5;exitY=0;exitDx=0;exitDy=0;" parent="1" source="4mAQNpWLt4tQU0ZCI15O-125" target="4mAQNpWLt4tQU0ZCI15O-127" edge="1">
          <mxGeometry relative="1" as="geometry">
            <mxPoint x="1310" y="124.5" as="sourcePoint" />
            <mxPoint x="1470" y="124.5" as="targetPoint" />
          </mxGeometry>
        </mxCell>
        <mxCell id="4mAQNpWLt4tQU0ZCI15O-132" value="" style="endArrow=none;html=1;rounded=0;entryX=0;entryY=1;entryDx=0;entryDy=0;exitX=1;exitY=0;exitDx=0;exitDy=0;" parent="1" source="4mAQNpWLt4tQU0ZCI15O-125" target="4mAQNpWLt4tQU0ZCI15O-128" edge="1">
          <mxGeometry relative="1" as="geometry">
            <mxPoint x="1170" y="235" as="sourcePoint" />
            <mxPoint x="1480" y="144" as="targetPoint" />
          </mxGeometry>
        </mxCell>
        <mxCell id="4mAQNpWLt4tQU0ZCI15O-133" value="" style="endArrow=none;html=1;rounded=0;entryX=0;entryY=0.5;entryDx=0;entryDy=0;exitX=1;exitY=0.5;exitDx=0;exitDy=0;" parent="1" source="4mAQNpWLt4tQU0ZCI15O-125" target="4mAQNpWLt4tQU0ZCI15O-129" edge="1">
          <mxGeometry relative="1" as="geometry">
            <mxPoint x="1280" y="165" as="sourcePoint" />
            <mxPoint x="1440" y="165" as="targetPoint" />
          </mxGeometry>
        </mxCell>
        <mxCell id="4mAQNpWLt4tQU0ZCI15O-134" value="" style="endArrow=none;html=1;rounded=0;exitX=1;exitY=0.5;exitDx=0;exitDy=0;entryX=0;entryY=0.5;entryDx=0;entryDy=0;" parent="1" source="4mAQNpWLt4tQU0ZCI15O-137" target="4mAQNpWLt4tQU0ZCI15O-125" edge="1">
          <mxGeometry relative="1" as="geometry">
            <mxPoint x="922" y="24" as="sourcePoint" />
            <mxPoint x="980" y="-5" as="targetPoint" />
          </mxGeometry>
        </mxCell>
        <mxCell id="4mAQNpWLt4tQU0ZCI15O-135" value="&lt;u&gt;Credit card number&lt;/u&gt;" style="ellipse;whiteSpace=wrap;html=1;align=center;fontStyle=0;" parent="1" vertex="1">
          <mxGeometry x="1080" y="385" width="100" height="40" as="geometry" />
        </mxCell>
        <mxCell id="4mAQNpWLt4tQU0ZCI15O-136" value="" style="endArrow=none;html=1;rounded=0;entryX=0.5;entryY=0;entryDx=0;entryDy=0;exitX=0.5;exitY=1;exitDx=0;exitDy=0;" parent="1" source="4mAQNpWLt4tQU0ZCI15O-125" target="4mAQNpWLt4tQU0ZCI15O-135" edge="1">
          <mxGeometry relative="1" as="geometry">
            <mxPoint x="1253" y="165" as="sourcePoint" />
            <mxPoint x="1330" y="217" as="targetPoint" />
          </mxGeometry>
        </mxCell>
        <mxCell id="4mAQNpWLt4tQU0ZCI15O-137" value="Payment method fees" style="ellipse;whiteSpace=wrap;html=1;align=center;fontStyle=0;" parent="1" vertex="1">
          <mxGeometry x="880" y="270" width="110" height="50" as="geometry" />
        </mxCell>
        <mxCell id="4mAQNpWLt4tQU0ZCI15O-138" value="CVV" style="ellipse;whiteSpace=wrap;html=1;align=center;fontStyle=0;" parent="1" vertex="1">
          <mxGeometry x="1240" y="355" width="100" height="40" as="geometry" />
        </mxCell>
        <mxCell id="4mAQNpWLt4tQU0ZCI15O-139" value="" style="endArrow=none;html=1;rounded=0;entryX=0;entryY=0;entryDx=0;entryDy=0;exitX=1;exitY=1;exitDx=0;exitDy=0;" parent="1" source="4mAQNpWLt4tQU0ZCI15O-125" target="4mAQNpWLt4tQU0ZCI15O-138" edge="1">
          <mxGeometry relative="1" as="geometry">
            <mxPoint x="1270" y="165" as="sourcePoint" />
            <mxPoint x="1220" y="245" as="targetPoint" />
          </mxGeometry>
        </mxCell>
        <mxCell id="4mAQNpWLt4tQU0ZCI15O-153" value="STORE" style="whiteSpace=wrap;html=1;align=center;fillColor=#c4c4c4;" parent="1" vertex="1">
          <mxGeometry x="-8" y="600" width="100" height="40" as="geometry" />
        </mxCell>
        <mxCell id="4mAQNpWLt4tQU0ZCI15O-154" value="&lt;u&gt;StoreID&lt;/u&gt;" style="ellipse;whiteSpace=wrap;html=1;align=center;" parent="1" vertex="1">
          <mxGeometry x="116" y="650" width="100" height="40" as="geometry" />
        </mxCell>
        <mxCell id="4mAQNpWLt4tQU0ZCI15O-155" value="Phone" style="ellipse;whiteSpace=wrap;html=1;align=center;" parent="1" vertex="1">
          <mxGeometry x="116" y="490" width="100" height="40" as="geometry" />
        </mxCell>
        <mxCell id="4mAQNpWLt4tQU0ZCI15O-156" value="StoreName" style="ellipse;whiteSpace=wrap;html=1;align=center;" parent="1" vertex="1">
          <mxGeometry x="-19.07000000000005" y="470" width="100" height="40" as="geometry" />
        </mxCell>
        <mxCell id="4mAQNpWLt4tQU0ZCI15O-158" value="" style="endArrow=none;html=1;rounded=0;entryX=0;entryY=1;entryDx=0;entryDy=0;exitX=1;exitY=0;exitDx=0;exitDy=0;" parent="1" source="4mAQNpWLt4tQU0ZCI15O-153" target="4mAQNpWLt4tQU0ZCI15O-155" edge="1">
          <mxGeometry relative="1" as="geometry">
            <mxPoint x="170.93" y="480" as="sourcePoint" />
            <mxPoint x="150.93" y="630" as="targetPoint" />
          </mxGeometry>
        </mxCell>
        <mxCell id="4mAQNpWLt4tQU0ZCI15O-159" value="" style="endArrow=none;html=1;rounded=0;" parent="1" source="4mAQNpWLt4tQU0ZCI15O-153" target="4mAQNpWLt4tQU0ZCI15O-156" edge="1">
          <mxGeometry relative="1" as="geometry">
            <mxPoint x="70.93" y="610" as="sourcePoint" />
            <mxPoint x="134.93" y="567" as="targetPoint" />
          </mxGeometry>
        </mxCell>
        <mxCell id="4mAQNpWLt4tQU0ZCI15O-160" value="" style="endArrow=none;html=1;rounded=0;exitX=0;exitY=0;exitDx=0;exitDy=0;entryX=1;entryY=1;entryDx=0;entryDy=0;" parent="1" source="4mAQNpWLt4tQU0ZCI15O-154" target="4mAQNpWLt4tQU0ZCI15O-153" edge="1">
          <mxGeometry relative="1" as="geometry">
            <mxPoint x="30.92999999999995" y="730" as="sourcePoint" />
            <mxPoint x="144.93" y="577" as="targetPoint" />
          </mxGeometry>
        </mxCell>
        <mxCell id="4mAQNpWLt4tQU0ZCI15O-163" value="" style="endArrow=none;html=1;rounded=0;exitX=0;exitY=1;exitDx=0;exitDy=0;entryX=1;entryY=0;entryDx=0;entryDy=0;" parent="1" source="4mAQNpWLt4tQU0ZCI15O-153" target="4mAQNpWLt4tQU0ZCI15O-164" edge="1">
          <mxGeometry relative="1" as="geometry">
            <mxPoint x="79.93" y="600" as="sourcePoint" />
            <mxPoint x="166.0907157868391" y="564.3455876171838" as="targetPoint" />
          </mxGeometry>
        </mxCell>
        <mxCell id="4mAQNpWLt4tQU0ZCI15O-164" value="OpenHours" style="ellipse;whiteSpace=wrap;html=1;align=center;" parent="1" vertex="1">
          <mxGeometry x="-164" y="650" width="100" height="40" as="geometry" />
        </mxCell>
        <mxCell id="4mAQNpWLt4tQU0ZCI15O-167" value="FULFILLS" style="shape=rhombus;perimeter=rhombusPerimeter;whiteSpace=wrap;html=1;align=center;" parent="1" vertex="1">
          <mxGeometry x="320" y="600" width="120" height="60" as="geometry" />
        </mxCell>
        <mxCell id="4mAQNpWLt4tQU0ZCI15O-172" value="SUPPLIER" style="whiteSpace=wrap;html=1;align=center;fillColor=#c4c4c4;" parent="1" vertex="1">
          <mxGeometry x="-254.86" y="1024.5700000000002" width="100" height="40" as="geometry" />
        </mxCell>
        <mxCell id="4mAQNpWLt4tQU0ZCI15O-173" value="&lt;u&gt;SupplierID&lt;/u&gt;" style="ellipse;whiteSpace=wrap;html=1;align=center;" parent="1" vertex="1">
          <mxGeometry x="-254.86" y="1124.5700000000002" width="100" height="40" as="geometry" />
        </mxCell>
        <mxCell id="4mAQNpWLt4tQU0ZCI15O-174" value="DelSchedule" style="ellipse;whiteSpace=wrap;html=1;align=center;" parent="1" vertex="1">
          <mxGeometry x="-370" y="954.57" width="100" height="40" as="geometry" />
        </mxCell>
        <mxCell id="4mAQNpWLt4tQU0ZCI15O-176" value="Email" style="ellipse;whiteSpace=wrap;html=1;align=center;" parent="1" vertex="1">
          <mxGeometry x="-550" y="984.57" width="100" height="40" as="geometry" />
        </mxCell>
        <mxCell id="4mAQNpWLt4tQU0ZCI15O-177" value="Phone" style="ellipse;whiteSpace=wrap;html=1;align=center;" parent="1" vertex="1">
          <mxGeometry x="-550" y="1064.5700000000002" width="100" height="40" as="geometry" />
        </mxCell>
        <mxCell id="4mAQNpWLt4tQU0ZCI15O-178" value="" style="endArrow=none;html=1;rounded=0;entryX=0;entryY=0.5;entryDx=0;entryDy=0;exitX=1;exitY=1;exitDx=0;exitDy=0;" parent="1" source="4mAQNpWLt4tQU0ZCI15O-176" target="4mAQNpWLt4tQU0ZCI15O-193" edge="1">
          <mxGeometry relative="1" as="geometry">
            <mxPoint x="-460" y="1014.57" as="sourcePoint" />
            <mxPoint x="-124.86000000000001" y="954.57" as="targetPoint" />
          </mxGeometry>
        </mxCell>
        <mxCell id="4mAQNpWLt4tQU0ZCI15O-179" value="" style="endArrow=none;html=1;rounded=0;entryX=0;entryY=0.5;entryDx=0;entryDy=0;exitX=1;exitY=0;exitDx=0;exitDy=0;" parent="1" source="4mAQNpWLt4tQU0ZCI15O-177" target="4mAQNpWLt4tQU0ZCI15O-193" edge="1">
          <mxGeometry relative="1" as="geometry">
            <mxPoint x="-114.86000000000001" y="834.57" as="sourcePoint" />
            <mxPoint x="-124.86000000000001" y="954.57" as="targetPoint" />
          </mxGeometry>
        </mxCell>
        <mxCell id="4mAQNpWLt4tQU0ZCI15O-180" value="" style="endArrow=none;html=1;rounded=0;" parent="1" source="4mAQNpWLt4tQU0ZCI15O-173" target="4mAQNpWLt4tQU0ZCI15O-172" edge="1">
          <mxGeometry relative="1" as="geometry">
            <mxPoint x="-404.86" y="1024.5700000000002" as="sourcePoint" />
            <mxPoint x="-244.86" y="1024.5700000000002" as="targetPoint" />
          </mxGeometry>
        </mxCell>
        <mxCell id="4mAQNpWLt4tQU0ZCI15O-181" value="" style="endArrow=none;html=1;rounded=0;exitX=1;exitY=1;exitDx=0;exitDy=0;entryX=0;entryY=0;entryDx=0;entryDy=0;" parent="1" source="4mAQNpWLt4tQU0ZCI15O-174" target="4mAQNpWLt4tQU0ZCI15O-172" edge="1">
          <mxGeometry relative="1" as="geometry">
            <mxPoint x="-404.86" y="1024.5700000000002" as="sourcePoint" />
            <mxPoint x="-244.86" y="1024.5700000000002" as="targetPoint" />
          </mxGeometry>
        </mxCell>
        <mxCell id="4mAQNpWLt4tQU0ZCI15O-182" value="" style="endArrow=none;html=1;rounded=0;exitX=1;exitY=0.5;exitDx=0;exitDy=0;entryX=0;entryY=0.5;entryDx=0;entryDy=0;" parent="1" source="4mAQNpWLt4tQU0ZCI15O-193" target="4mAQNpWLt4tQU0ZCI15O-172" edge="1">
          <mxGeometry relative="1" as="geometry">
            <mxPoint x="-124.86000000000001" y="994.57" as="sourcePoint" />
            <mxPoint x="-164.86" y="964.57" as="targetPoint" />
          </mxGeometry>
        </mxCell>
        <mxCell id="4mAQNpWLt4tQU0ZCI15O-183" value="SupName" style="ellipse;whiteSpace=wrap;html=1;align=center;" parent="1" vertex="1">
          <mxGeometry x="-384.86" y="1094.5700000000002" width="100" height="40" as="geometry" />
        </mxCell>
        <mxCell id="4mAQNpWLt4tQU0ZCI15O-184" value="" style="endArrow=none;html=1;rounded=0;exitX=0;exitY=1;exitDx=0;exitDy=0;entryX=1;entryY=0;entryDx=0;entryDy=0;" parent="1" source="4mAQNpWLt4tQU0ZCI15O-172" target="4mAQNpWLt4tQU0ZCI15O-183" edge="1">
          <mxGeometry relative="1" as="geometry">
            <mxPoint x="5.139999999999986" y="984.57" as="sourcePoint" />
            <mxPoint x="165.14" y="984.57" as="targetPoint" />
          </mxGeometry>
        </mxCell>
        <mxCell id="4mAQNpWLt4tQU0ZCI15O-185" value="Product" style="ellipse;whiteSpace=wrap;html=1;align=center;" parent="1" vertex="1">
          <mxGeometry x="-254.86" y="924.57" width="100" height="40" as="geometry" />
        </mxCell>
        <mxCell id="4mAQNpWLt4tQU0ZCI15O-186" value="" style="endArrow=none;html=1;rounded=0;" parent="1" source="4mAQNpWLt4tQU0ZCI15O-172" target="4mAQNpWLt4tQU0ZCI15O-185" edge="1">
          <mxGeometry relative="1" as="geometry">
            <mxPoint x="-221.52666666666676" y="1034.5700000000002" as="sourcePoint" />
            <mxPoint x="-331.33058823529416" y="952.2170588235293" as="targetPoint" />
          </mxGeometry>
        </mxCell>
        <mxCell id="4mAQNpWLt4tQU0ZCI15O-193" value="Contact" style="ellipse;shape=doubleEllipse;margin=3;whiteSpace=wrap;html=1;align=center;" parent="1" vertex="1">
          <mxGeometry x="-430" y="1024.5700000000002" width="100" height="40" as="geometry" />
        </mxCell>
        <mxCell id="4mAQNpWLt4tQU0ZCI15O-207" value="" style="shape=link;html=1;rounded=0;entryX=0;entryY=0;entryDx=0;entryDy=0;exitX=1;exitY=0.5;exitDx=0;exitDy=0;" parent="1" source="4mAQNpWLt4tQU0ZCI15O-14" target="4mAQNpWLt4tQU0ZCI15O-13" edge="1">
          <mxGeometry relative="1" as="geometry">
            <mxPoint x="507.5" y="517.5" as="sourcePoint" />
            <mxPoint x="652.5" y="602.5" as="targetPoint" />
          </mxGeometry>
        </mxCell>
        <mxCell id="4mAQNpWLt4tQU0ZCI15O-208" value="N" style="resizable=0;html=1;whiteSpace=wrap;align=right;verticalAlign=bottom;" parent="4mAQNpWLt4tQU0ZCI15O-207" connectable="0" vertex="1">
          <mxGeometry x="1" relative="1" as="geometry">
            <mxPoint x="-119" y="-150" as="offset" />
          </mxGeometry>
        </mxCell>
        <mxCell id="4mAQNpWLt4tQU0ZCI15O-212" value="" style="shape=link;html=1;rounded=0;entryX=0;entryY=0.5;entryDx=0;entryDy=0;exitX=1;exitY=0.5;exitDx=0;exitDy=0;" parent="1" source="4mAQNpWLt4tQU0ZCI15O-167" target="4mAQNpWLt4tQU0ZCI15O-13" edge="1">
          <mxGeometry relative="1" as="geometry">
            <mxPoint x="520" y="520" as="sourcePoint" />
            <mxPoint x="610" y="650" as="targetPoint" />
          </mxGeometry>
        </mxCell>
        <mxCell id="4mAQNpWLt4tQU0ZCI15O-213" value="N" style="resizable=0;html=1;whiteSpace=wrap;align=right;verticalAlign=bottom;" parent="4mAQNpWLt4tQU0ZCI15O-212" connectable="0" vertex="1">
          <mxGeometry x="1" relative="1" as="geometry">
            <mxPoint x="-131" as="offset" />
          </mxGeometry>
        </mxCell>
        <mxCell id="4mAQNpWLt4tQU0ZCI15O-214" value="PROMOTION" style="shape=ext;margin=3;double=1;whiteSpace=wrap;html=1;align=center;fillColor=#C4C4C4;strokeColor=#36393d;" parent="1" vertex="1">
          <mxGeometry x="-30.000000000000014" y="1358.3799999999999" width="100" height="40" as="geometry" />
        </mxCell>
        <mxCell id="4mAQNpWLt4tQU0ZCI15O-216" value="Promotion description" style="ellipse;whiteSpace=wrap;html=1;align=center;" parent="1" vertex="1">
          <mxGeometry x="-220" y="1358.3799999999999" width="100" height="40" as="geometry" />
        </mxCell>
        <mxCell id="4mAQNpWLt4tQU0ZCI15O-219" value="Discount percentage" style="ellipse;whiteSpace=wrap;html=1;align=center;fontStyle=0;" parent="1" vertex="1">
          <mxGeometry x="-30.000000000000014" y="1239.9999999999998" width="100" height="40" as="geometry" />
        </mxCell>
        <mxCell id="4mAQNpWLt4tQU0ZCI15O-220" value="" style="endArrow=none;html=1;rounded=0;entryX=1;entryY=1;entryDx=0;entryDy=0;exitX=0;exitY=0;exitDx=0;exitDy=0;" parent="1" source="4mAQNpWLt4tQU0ZCI15O-214" target="4mAQNpWLt4tQU0ZCI15O-261" edge="1">
          <mxGeometry relative="1" as="geometry">
            <mxPoint x="69.99999999999999" y="1350.04" as="sourcePoint" />
            <mxPoint x="160" y="1370.04" as="targetPoint" />
          </mxGeometry>
        </mxCell>
        <mxCell id="4mAQNpWLt4tQU0ZCI15O-221" value="" style="endArrow=none;html=1;rounded=0;entryX=1;entryY=0;entryDx=0;entryDy=0;exitX=0.5;exitY=1;exitDx=0;exitDy=0;" parent="1" source="4mAQNpWLt4tQU0ZCI15O-214" target="SMxY6qfo6ZMCXZMzUZ7d-17" edge="1">
          <mxGeometry relative="1" as="geometry">
            <mxPoint x="39.999999999999986" y="1349.54" as="sourcePoint" />
            <mxPoint x="-26.193580315232808" y="1501.8940257960842" as="targetPoint" />
          </mxGeometry>
        </mxCell>
        <mxCell id="4mAQNpWLt4tQU0ZCI15O-222" value="" style="endArrow=none;html=1;rounded=0;entryX=0;entryY=1;entryDx=0;entryDy=0;exitX=1;exitY=0;exitDx=0;exitDy=0;" parent="1" source="4mAQNpWLt4tQU0ZCI15O-214" edge="1">
          <mxGeometry relative="1" as="geometry">
            <mxPoint x="19.999999999999986" y="1349.54" as="sourcePoint" />
            <mxPoint x="124.64466094067234" y="1306.662135623731" as="targetPoint" />
          </mxGeometry>
        </mxCell>
        <mxCell id="4mAQNpWLt4tQU0ZCI15O-223" value="" style="endArrow=none;html=1;rounded=0;exitX=0.5;exitY=1;exitDx=0;exitDy=0;entryX=0.5;entryY=0;entryDx=0;entryDy=0;" parent="1" source="4mAQNpWLt4tQU0ZCI15O-219" target="4mAQNpWLt4tQU0ZCI15O-214" edge="1">
          <mxGeometry relative="1" as="geometry">
            <mxPoint x="-170" y="1349.54" as="sourcePoint" />
            <mxPoint x="-10.000000000000014" y="1349.54" as="targetPoint" />
          </mxGeometry>
        </mxCell>
        <mxCell id="4mAQNpWLt4tQU0ZCI15O-224" value="" style="endArrow=none;html=1;rounded=0;exitX=1;exitY=0.5;exitDx=0;exitDy=0;entryX=0;entryY=0.5;entryDx=0;entryDy=0;" parent="1" source="4mAQNpWLt4tQU0ZCI15O-216" target="4mAQNpWLt4tQU0ZCI15O-214" edge="1">
          <mxGeometry relative="1" as="geometry">
            <mxPoint x="-190" y="1359.54" as="sourcePoint" />
            <mxPoint x="-30.000000000000014" y="1359.54" as="targetPoint" />
          </mxGeometry>
        </mxCell>
        <mxCell id="4mAQNpWLt4tQU0ZCI15O-225" value="" style="endArrow=none;html=1;rounded=0;exitX=1;exitY=0;exitDx=0;exitDy=0;entryX=0;entryY=1;entryDx=0;entryDy=0;" parent="1" source="SMxY6qfo6ZMCXZMzUZ7d-18" target="4mAQNpWLt4tQU0ZCI15O-214" edge="1">
          <mxGeometry relative="1" as="geometry">
            <mxPoint x="-71.3425020771274" y="1435.863991143566" as="sourcePoint" />
            <mxPoint x="-20.000000000000014" y="1390.04" as="targetPoint" />
          </mxGeometry>
        </mxCell>
        <mxCell id="4mAQNpWLt4tQU0ZCI15O-230" value="" style="endArrow=none;html=1;rounded=0;entryX=0;entryY=0;entryDx=0;entryDy=0;exitX=1;exitY=1;exitDx=0;exitDy=0;" parent="1" source="4mAQNpWLt4tQU0ZCI15O-214" target="SMxY6qfo6ZMCXZMzUZ7d-15" edge="1">
          <mxGeometry relative="1" as="geometry">
            <mxPoint x="114.99999999999999" y="1360.04" as="sourcePoint" />
            <mxPoint x="117.74295800494654" y="1432.2920423620774" as="targetPoint" />
          </mxGeometry>
        </mxCell>
        <mxCell id="4mAQNpWLt4tQU0ZCI15O-231" value="PRODUCT" style="whiteSpace=wrap;html=1;align=center;fillColor=#C4C4C4;strokeColor=#36393d;" parent="1" vertex="1">
          <mxGeometry x="275" y="1040.4299999999998" width="100" height="40" as="geometry" />
        </mxCell>
        <mxCell id="4mAQNpWLt4tQU0ZCI15O-232" value="" style="endArrow=none;html=1;rounded=0;" parent="1" source="4mAQNpWLt4tQU0ZCI15O-231" edge="1">
          <mxGeometry relative="1" as="geometry">
            <mxPoint x="20" y="1449.57" as="sourcePoint" />
            <mxPoint x="356.86987628558654" y="1349.9450618572068" as="targetPoint" />
          </mxGeometry>
        </mxCell>
        <mxCell id="4mAQNpWLt4tQU0ZCI15O-233" value="1" style="resizable=0;html=1;whiteSpace=wrap;align=right;verticalAlign=bottom;" parent="1" connectable="0" vertex="1">
          <mxGeometry x="600.0024137620244" y="1420.004704178175" as="geometry">
            <mxPoint x="-253" y="-73" as="offset" />
          </mxGeometry>
        </mxCell>
        <mxCell id="4mAQNpWLt4tQU0ZCI15O-234" value="1" style="resizable=0;html=1;whiteSpace=wrap;align=right;verticalAlign=bottom;" parent="1" connectable="0" vertex="1">
          <mxGeometry x="430.0024137620244" y="1408.3847041781748" as="geometry">
            <mxPoint x="-144" y="-39" as="offset" />
          </mxGeometry>
        </mxCell>
        <mxCell id="4mAQNpWLt4tQU0ZCI15O-210" value="" style="shape=link;html=1;rounded=0;exitX=1;exitY=0;exitDx=0;exitDy=0;entryX=0;entryY=0.5;entryDx=0;entryDy=0;" parent="1" source="4mAQNpWLt4tQU0ZCI15O-13" target="4mAQNpWLt4tQU0ZCI15O-116" edge="1">
          <mxGeometry width="100" relative="1" as="geometry">
            <mxPoint x="510" y="840" as="sourcePoint" />
            <mxPoint x="610" y="840" as="targetPoint" />
          </mxGeometry>
        </mxCell>
        <mxCell id="4mAQNpWLt4tQU0ZCI15O-211" value="N" style="resizable=0;html=1;whiteSpace=wrap;align=right;verticalAlign=bottom;" parent="1" connectable="0" vertex="1">
          <mxGeometry x="275.00083827026083" y="180.0041131974848" as="geometry">
            <mxPoint x="575" y="315" as="offset" />
          </mxGeometry>
        </mxCell>
        <mxCell id="4mAQNpWLt4tQU0ZCI15O-242" value="" style="endArrow=none;html=1;rounded=0;exitX=0.5;exitY=1;exitDx=0;exitDy=0;entryX=0;entryY=0;entryDx=0;entryDy=0;" parent="1" source="4mAQNpWLt4tQU0ZCI15O-231" target="4mAQNpWLt4tQU0ZCI15O-258" edge="1">
          <mxGeometry width="50" height="50" relative="1" as="geometry">
            <mxPoint x="295" y="1040.4299999999998" as="sourcePoint" />
            <mxPoint x="225" y="987.9300000000001" as="targetPoint" />
          </mxGeometry>
        </mxCell>
        <mxCell id="4mAQNpWLt4tQU0ZCI15O-243" value="" style="endArrow=none;html=1;rounded=0;entryX=0;entryY=0;entryDx=0;entryDy=0;exitX=1;exitY=1;exitDx=0;exitDy=0;" parent="1" source="4mAQNpWLt4tQU0ZCI15O-231" target="4mAQNpWLt4tQU0ZCI15O-255" edge="1">
          <mxGeometry width="50" height="50" relative="1" as="geometry">
            <mxPoint x="325" y="1100.4299999999998" as="sourcePoint" />
            <mxPoint x="320" y="1120.4299999999998" as="targetPoint" />
          </mxGeometry>
        </mxCell>
        <mxCell id="4mAQNpWLt4tQU0ZCI15O-246" value="" style="endArrow=none;html=1;rounded=0;exitX=0;exitY=1;exitDx=0;exitDy=0;entryX=1;entryY=0;entryDx=0;entryDy=0;" parent="1" source="4mAQNpWLt4tQU0ZCI15O-231" target="4mAQNpWLt4tQU0ZCI15O-257" edge="1">
          <mxGeometry width="50" height="50" relative="1" as="geometry">
            <mxPoint x="325" y="1040.4299999999998" as="sourcePoint" />
            <mxPoint x="335" y="960.4300000000001" as="targetPoint" />
          </mxGeometry>
        </mxCell>
        <mxCell id="4mAQNpWLt4tQU0ZCI15O-255" value="&lt;u&gt;Barcode&lt;/u&gt;" style="ellipse;whiteSpace=wrap;html=1;align=center;" parent="1" vertex="1">
          <mxGeometry x="410" y="1124.57" width="100" height="40" as="geometry" />
        </mxCell>
        <mxCell id="4mAQNpWLt4tQU0ZCI15O-257" value="Amount in stock" style="ellipse;whiteSpace=wrap;html=1;align=center;" parent="1" vertex="1">
          <mxGeometry x="140" y="1124.5699999999997" width="100" height="40" as="geometry" />
        </mxCell>
        <mxCell id="4mAQNpWLt4tQU0ZCI15O-258" value="Cost per unit" style="ellipse;whiteSpace=wrap;html=1;align=center;" parent="1" vertex="1">
          <mxGeometry x="360.55000000000007" y="1180" width="106.3" height="42.52" as="geometry" />
        </mxCell>
        <mxCell id="4mAQNpWLt4tQU0ZCI15O-261" value="Product code" style="ellipse;whiteSpace=wrap;html=1;align=center;" parent="1" vertex="1">
          <mxGeometry x="-165.14" y="1272.5199999999998" width="100" height="40" as="geometry" />
        </mxCell>
        <mxCell id="4mAQNpWLt4tQU0ZCI15O-262" value="" style="shape=link;html=1;rounded=0;entryX=1;entryY=0.5;entryDx=0;entryDy=0;exitX=0;exitY=0.5;exitDx=0;exitDy=0;" parent="1" target="4mAQNpWLt4tQU0ZCI15O-214" edge="1">
          <mxGeometry width="100" relative="1" as="geometry">
            <mxPoint x="300" y="1378.38" as="sourcePoint" />
            <mxPoint x="-4.860000000000028" y="1242.5199999999998" as="targetPoint" />
          </mxGeometry>
        </mxCell>
        <mxCell id="SMxY6qfo6ZMCXZMzUZ7d-1" value="" style="endArrow=none;html=1;rounded=0;exitX=1;exitY=0;exitDx=0;exitDy=0;entryX=0;entryY=1;entryDx=0;entryDy=0;" parent="1" source="4mAQNpWLt4tQU0ZCI15O-231" target="SMxY6qfo6ZMCXZMzUZ7d-2" edge="1">
          <mxGeometry width="50" height="50" relative="1" as="geometry">
            <mxPoint x="275" y="1112.9499999999998" as="sourcePoint" />
            <mxPoint x="200" y="1060.4499999999998" as="targetPoint" />
          </mxGeometry>
        </mxCell>
        <mxCell id="SMxY6qfo6ZMCXZMzUZ7d-2" value="Use by date" style="ellipse;whiteSpace=wrap;html=1;align=center;" parent="1" vertex="1">
          <mxGeometry x="430" y="983.31" width="106.3" height="42.52" as="geometry" />
        </mxCell>
        <mxCell id="SMxY6qfo6ZMCXZMzUZ7d-5" value="" style="endArrow=none;html=1;rounded=0;exitX=0.5;exitY=1;exitDx=0;exitDy=0;entryX=1;entryY=0;entryDx=0;entryDy=0;" parent="1" source="4mAQNpWLt4tQU0ZCI15O-231" target="SMxY6qfo6ZMCXZMzUZ7d-6" edge="1">
          <mxGeometry width="50" height="50" relative="1" as="geometry">
            <mxPoint x="275" y="1130.4299999999998" as="sourcePoint" />
            <mxPoint x="200" y="1130.4499999999998" as="targetPoint" />
          </mxGeometry>
        </mxCell>
        <mxCell id="SMxY6qfo6ZMCXZMzUZ7d-6" value="Name" style="ellipse;whiteSpace=wrap;html=1;align=center;" parent="1" vertex="1">
          <mxGeometry x="179.9999999999999" y="1179.9999999999995" width="106.3" height="42.52" as="geometry" />
        </mxCell>
        <mxCell id="SMxY6qfo6ZMCXZMzUZ7d-14" value="" style="endArrow=none;html=1;rounded=0;entryX=0;entryY=0;entryDx=0;entryDy=0;exitX=0.5;exitY=1;exitDx=0;exitDy=0;" parent="1" source="4mAQNpWLt4tQU0ZCI15O-214" target="SMxY6qfo6ZMCXZMzUZ7d-16" edge="1">
          <mxGeometry relative="1" as="geometry">
            <mxPoint x="79.99999999999999" y="1399.61" as="sourcePoint" />
            <mxPoint x="63.32329640963734" y="1502.0372396980858" as="targetPoint" />
          </mxGeometry>
        </mxCell>
        <mxCell id="SMxY6qfo6ZMCXZMzUZ7d-15" value="Promotion active" style="ellipse;whiteSpace=wrap;html=1;align=center;" parent="1" vertex="1">
          <mxGeometry x="109.99999999999999" y="1430.04" width="100" height="40" as="geometry" />
        </mxCell>
        <mxCell id="SMxY6qfo6ZMCXZMzUZ7d-16" value="Promotion length" style="ellipse;whiteSpace=wrap;html=1;align=center;" parent="1" vertex="1">
          <mxGeometry x="49.999999999999986" y="1499.61" width="100" height="40" as="geometry" />
        </mxCell>
        <mxCell id="SMxY6qfo6ZMCXZMzUZ7d-17" value="Promotion end date" style="ellipse;whiteSpace=wrap;html=1;align=center;dashed=1" parent="1" vertex="1">
          <mxGeometry x="-110.00000000000001" y="1500.47" width="100" height="40" as="geometry" />
        </mxCell>
        <mxCell id="SMxY6qfo6ZMCXZMzUZ7d-18" value="Promotion start date" style="ellipse;whiteSpace=wrap;html=1;align=center;" parent="1" vertex="1">
          <mxGeometry x="-165.14" y="1430.04" width="100" height="40" as="geometry" />
        </mxCell>
        <mxCell id="SMxY6qfo6ZMCXZMzUZ7d-20" value="REQUIRES" style="shape=rhombus;perimeter=rhombusPerimeter;whiteSpace=wrap;html=1;align=center;" parent="1" vertex="1">
          <mxGeometry x="590" y="1030.4299999999998" width="120" height="60" as="geometry" />
        </mxCell>
        <mxCell id="SMxY6qfo6ZMCXZMzUZ7d-23" value="RECIPE" style="whiteSpace=wrap;html=1;align=center;fillColor=#C4C4C4;strokeColor=#36393d;" parent="1" vertex="1">
          <mxGeometry x="900" y="1040.4299999999998" width="100" height="40" as="geometry" />
        </mxCell>
        <mxCell id="SMxY6qfo6ZMCXZMzUZ7d-24" value="" style="endArrow=none;html=1;rounded=0;exitX=0;exitY=0.5;exitDx=0;exitDy=0;entryX=1;entryY=0.5;entryDx=0;entryDy=0;" parent="1" source="SMxY6qfo6ZMCXZMzUZ7d-23" target="SMxY6qfo6ZMCXZMzUZ7d-20" edge="1">
          <mxGeometry relative="1" as="geometry">
            <mxPoint x="320" y="1140" as="sourcePoint" />
            <mxPoint x="480" y="1140" as="targetPoint" />
          </mxGeometry>
        </mxCell>
        <mxCell id="SMxY6qfo6ZMCXZMzUZ7d-25" value="N" style="resizable=0;html=1;whiteSpace=wrap;align=right;verticalAlign=bottom;" parent="SMxY6qfo6ZMCXZMzUZ7d-24" connectable="0" vertex="1">
          <mxGeometry x="1" relative="1" as="geometry">
            <mxPoint x="11" y="-5" as="offset" />
          </mxGeometry>
        </mxCell>
        <mxCell id="SMxY6qfo6ZMCXZMzUZ7d-29" value="" style="shape=link;endArrow=none;html=1;rounded=0;entryX=0;entryY=0.5;entryDx=0;entryDy=0;exitX=1;exitY=0.5;exitDx=0;exitDy=0;" parent="1" source="4mAQNpWLt4tQU0ZCI15O-231" target="SMxY6qfo6ZMCXZMzUZ7d-20" edge="1">
          <mxGeometry relative="1" as="geometry">
            <mxPoint x="320" y="1140" as="sourcePoint" />
            <mxPoint x="480" y="1140" as="targetPoint" />
          </mxGeometry>
        </mxCell>
        <mxCell id="SMxY6qfo6ZMCXZMzUZ7d-30" value="M" style="resizable=0;html=1;whiteSpace=wrap;align=right;verticalAlign=bottom;" parent="SMxY6qfo6ZMCXZMzUZ7d-29" connectable="0" vertex="1">
          <mxGeometry x="1" relative="1" as="geometry">
            <mxPoint y="-5" as="offset" />
          </mxGeometry>
        </mxCell>
        <mxCell id="SMxY6qfo6ZMCXZMzUZ7d-31" value="&lt;u&gt;Name&lt;/u&gt;" style="ellipse;whiteSpace=wrap;html=1;align=center;fontStyle=0;" parent="1" vertex="1">
          <mxGeometry x="900" y="954.5699999999999" width="100" height="40" as="geometry" />
        </mxCell>
        <mxCell id="SMxY6qfo6ZMCXZMzUZ7d-32" value="Ingredient" style="ellipse;shape=doubleEllipse;whiteSpace=wrap;html=1;align=center;fontStyle=0;" parent="1" vertex="1">
          <mxGeometry x="900" y="1124.57" width="100" height="40" as="geometry" />
        </mxCell>
        <mxCell id="SMxY6qfo6ZMCXZMzUZ7d-33" value="Instruction" style="ellipse;whiteSpace=wrap;html=1;align=center;fontStyle=0;" parent="1" vertex="1">
          <mxGeometry x="1080" y="1040.43" width="100" height="40" as="geometry" />
        </mxCell>
        <mxCell id="SMxY6qfo6ZMCXZMzUZ7d-34" value="" style="endArrow=none;html=1;rounded=0;entryX=0.5;entryY=0;entryDx=0;entryDy=0;exitX=0.5;exitY=1;exitDx=0;exitDy=0;" parent="1" source="SMxY6qfo6ZMCXZMzUZ7d-31" target="SMxY6qfo6ZMCXZMzUZ7d-23" edge="1">
          <mxGeometry relative="1" as="geometry">
            <mxPoint x="818" y="770" as="sourcePoint" />
            <mxPoint x="818" y="870" as="targetPoint" />
          </mxGeometry>
        </mxCell>
        <mxCell id="SMxY6qfo6ZMCXZMzUZ7d-35" value="" style="endArrow=none;html=1;rounded=0;entryX=0.5;entryY=0;entryDx=0;entryDy=0;exitX=0.5;exitY=1;exitDx=0;exitDy=0;" parent="1" source="SMxY6qfo6ZMCXZMzUZ7d-23" target="SMxY6qfo6ZMCXZMzUZ7d-32" edge="1">
          <mxGeometry relative="1" as="geometry">
            <mxPoint x="960" y="1005" as="sourcePoint" />
            <mxPoint x="960" y="1050" as="targetPoint" />
          </mxGeometry>
        </mxCell>
        <mxCell id="SMxY6qfo6ZMCXZMzUZ7d-36" value="" style="endArrow=none;html=1;rounded=0;entryX=0;entryY=0.5;entryDx=0;entryDy=0;exitX=1;exitY=0.5;exitDx=0;exitDy=0;" parent="1" source="SMxY6qfo6ZMCXZMzUZ7d-23" target="SMxY6qfo6ZMCXZMzUZ7d-33" edge="1">
          <mxGeometry relative="1" as="geometry">
            <mxPoint x="970" y="1015" as="sourcePoint" />
            <mxPoint x="970" y="1060" as="targetPoint" />
          </mxGeometry>
        </mxCell>
        <mxCell id="SMxY6qfo6ZMCXZMzUZ7d-37" value="Product name" style="ellipse;whiteSpace=wrap;html=1;align=center;fontStyle=0;" parent="1" vertex="1">
          <mxGeometry x="820" y="1194.1399999999999" width="100" height="40" as="geometry" />
        </mxCell>
        <mxCell id="SMxY6qfo6ZMCXZMzUZ7d-38" value="Quantity" style="ellipse;whiteSpace=wrap;html=1;align=center;fontStyle=0;" parent="1" vertex="1">
          <mxGeometry x="980" y="1194.1399999999999" width="100" height="40" as="geometry" />
        </mxCell>
        <mxCell id="SMxY6qfo6ZMCXZMzUZ7d-39" value="" style="endArrow=none;html=1;rounded=0;entryX=1;entryY=0;entryDx=0;entryDy=0;exitX=0.5;exitY=1;exitDx=0;exitDy=0;" parent="1" source="SMxY6qfo6ZMCXZMzUZ7d-32" target="SMxY6qfo6ZMCXZMzUZ7d-37" edge="1">
          <mxGeometry relative="1" as="geometry">
            <mxPoint x="960" y="1090" as="sourcePoint" />
            <mxPoint x="960" y="1135" as="targetPoint" />
          </mxGeometry>
        </mxCell>
        <mxCell id="SMxY6qfo6ZMCXZMzUZ7d-40" value="" style="endArrow=none;html=1;rounded=0;entryX=0;entryY=0;entryDx=0;entryDy=0;exitX=0.5;exitY=1;exitDx=0;exitDy=0;" parent="1" source="SMxY6qfo6ZMCXZMzUZ7d-32" target="SMxY6qfo6ZMCXZMzUZ7d-38" edge="1">
          <mxGeometry relative="1" as="geometry">
            <mxPoint x="960" y="1175" as="sourcePoint" />
            <mxPoint x="905" y="1210" as="targetPoint" />
          </mxGeometry>
        </mxCell>
        <mxCell id="2" value="SUPPLIES" style="shape=rhombus;perimeter=rhombusPerimeter;whiteSpace=wrap;html=1;align=center;" parent="1" vertex="1">
          <mxGeometry x="-50" y="1034.57" width="120" height="60" as="geometry" />
        </mxCell>
        <mxCell id="3" value="" style="shape=link;html=1;rounded=0;" parent="1" source="2" target="4mAQNpWLt4tQU0ZCI15O-231" edge="1">
          <mxGeometry relative="1" as="geometry">
            <mxPoint x="10.00000000000017" y="950.4300000000001" as="sourcePoint" />
            <mxPoint x="129.45" y="1090.43" as="targetPoint" />
          </mxGeometry>
        </mxCell>
        <mxCell id="4" value="N" style="resizable=0;html=1;whiteSpace=wrap;align=right;verticalAlign=bottom;" parent="3" connectable="0" vertex="1">
          <mxGeometry x="1" relative="1" as="geometry">
            <mxPoint x="-194" y="-11" as="offset" />
          </mxGeometry>
        </mxCell>
        <mxCell id="5" value="" style="shape=link;endArrow=none;html=1;rounded=0;" parent="1" source="4mAQNpWLt4tQU0ZCI15O-172" target="2" edge="1">
          <mxGeometry relative="1" as="geometry">
            <mxPoint x="-100" y="964.5699999999998" as="sourcePoint" />
            <mxPoint x="115" y="964.5699999999998" as="targetPoint" />
          </mxGeometry>
        </mxCell>
        <mxCell id="6" value="M" style="resizable=0;html=1;whiteSpace=wrap;align=right;verticalAlign=bottom;" parent="5" connectable="0" vertex="1">
          <mxGeometry x="1" relative="1" as="geometry">
            <mxPoint y="-5" as="offset" />
          </mxGeometry>
        </mxCell>
        <mxCell id="8" value="" style="shape=link;endArrow=none;html=1;rounded=0;entryX=0.5;entryY=0;entryDx=0;entryDy=0;" parent="1" source="4mAQNpWLt4tQU0ZCI15O-153" target="2" edge="1">
          <mxGeometry relative="1" as="geometry">
            <mxPoint x="9.999999999999886" y="780.0041934282788" as="sourcePoint" />
            <mxPoint x="198.0668841761826" y="818.4665579119087" as="targetPoint" />
          </mxGeometry>
        </mxCell>
        <mxCell id="9" value="M" style="resizable=0;html=1;whiteSpace=wrap;align=right;verticalAlign=bottom;" parent="8" connectable="0" vertex="1">
          <mxGeometry x="1" relative="1" as="geometry">
            <mxPoint x="21" y="1" as="offset" />
          </mxGeometry>
        </mxCell>
        <mxCell id="12" value="" style="endArrow=none;html=1;rounded=0;" parent="1" source="4mAQNpWLt4tQU0ZCI15O-153" target="4mAQNpWLt4tQU0ZCI15O-167" edge="1">
          <mxGeometry relative="1" as="geometry">
            <mxPoint x="204.93000000000006" y="660" as="sourcePoint" />
            <mxPoint x="346.8499999999999" y="660" as="targetPoint" />
          </mxGeometry>
        </mxCell>
        <mxCell id="13" value="1" style="resizable=0;html=1;whiteSpace=wrap;align=right;verticalAlign=bottom;" parent="12" connectable="0" vertex="1">
          <mxGeometry x="1" relative="1" as="geometry" />
        </mxCell>
        <mxCell id="y9HhmYNWer4QtPoeqVv9-13" value="CONTAINS" style="rhombus;whiteSpace=wrap;html=1;" parent="1" vertex="1">
          <mxGeometry x="400" y="840" width="150" height="60" as="geometry" />
        </mxCell>
        <mxCell id="y9HhmYNWer4QtPoeqVv9-14" value="" style="endArrow=none;html=1;rounded=0;exitX=0.75;exitY=0;exitDx=0;exitDy=0;entryX=0.413;entryY=0.926;entryDx=0;entryDy=0;entryPerimeter=0;" parent="1" source="4mAQNpWLt4tQU0ZCI15O-231" target="y9HhmYNWer4QtPoeqVv9-13" edge="1">
          <mxGeometry width="50" height="50" relative="1" as="geometry">
            <mxPoint x="380" y="930" as="sourcePoint" />
            <mxPoint x="450" y="880" as="targetPoint" />
          </mxGeometry>
        </mxCell>
        <mxCell id="y9HhmYNWer4QtPoeqVv9-15" value="" style="endArrow=none;html=1;rounded=0;exitX=0.655;exitY=0.181;exitDx=0;exitDy=0;exitPerimeter=0;" parent="1" source="y9HhmYNWer4QtPoeqVv9-13" edge="1">
          <mxGeometry width="50" height="50" relative="1" as="geometry">
            <mxPoint x="570" y="730" as="sourcePoint" />
            <mxPoint x="620" y="680" as="targetPoint" />
          </mxGeometry>
        </mxCell>
        <mxCell id="y9HhmYNWer4QtPoeqVv9-16" value="M" style="text;html=1;align=center;verticalAlign=middle;resizable=0;points=[];autosize=1;strokeColor=none;fillColor=none;" parent="1" vertex="1">
          <mxGeometry x="425" y="885" width="30" height="30" as="geometry" />
        </mxCell>
        <mxCell id="y9HhmYNWer4QtPoeqVv9-17" value="1" style="text;html=1;align=center;verticalAlign=middle;resizable=0;points=[];autosize=1;strokeColor=none;fillColor=none;" parent="1" vertex="1">
          <mxGeometry x="830" y="839.18" width="30" height="30" as="geometry" />
        </mxCell>
        <mxCell id="y9HhmYNWer4QtPoeqVv9-24" value="Dairy" style="whiteSpace=wrap;html=1;align=center;fillColor=#C4C4C4;strokeColor=#36393d;" parent="1" vertex="1">
          <mxGeometry x="-195" y="880" width="50" height="20.43" as="geometry" />
        </mxCell>
        <mxCell id="y9HhmYNWer4QtPoeqVv9-25" value="Medicinal" style="whiteSpace=wrap;html=1;align=center;fillColor=#C4C4C4;strokeColor=#36393d;" parent="1" vertex="1">
          <mxGeometry x="-170" y="840" width="60" height="20.43" as="geometry" />
        </mxCell>
        <mxCell id="y9HhmYNWer4QtPoeqVv9-26" value="Meat" style="whiteSpace=wrap;html=1;align=center;fillColor=#C4C4C4;strokeColor=#36393d;" parent="1" vertex="1">
          <mxGeometry x="70" y="729.57" width="40" height="20.43" as="geometry" />
        </mxCell>
        <mxCell id="y9HhmYNWer4QtPoeqVv9-27" value="Personal Hygiene" style="whiteSpace=wrap;html=1;align=center;fillColor=#C4C4C4;strokeColor=#36393d;" parent="1" vertex="1">
          <mxGeometry x="-103" y="760" width="103" height="20" as="geometry" />
        </mxCell>
        <mxCell id="y9HhmYNWer4QtPoeqVv9-28" value="Produce" style="whiteSpace=wrap;html=1;align=center;fillColor=#C4C4C4;strokeColor=#36393d;" parent="1" vertex="1">
          <mxGeometry y="729.5700000000002" width="50" height="20.43" as="geometry" />
        </mxCell>
        <mxCell id="y9HhmYNWer4QtPoeqVv9-29" value="Confectionary" style="whiteSpace=wrap;html=1;align=center;fillColor=#C4C4C4;strokeColor=#36393d;" parent="1" vertex="1">
          <mxGeometry x="-145" y="800" width="95" height="20.43" as="geometry" />
        </mxCell>
        <mxCell id="y9HhmYNWer4QtPoeqVv9-31" value="" style="endArrow=none;html=1;rounded=0;" parent="1" source="y9HhmYNWer4QtPoeqVv9-40" edge="1">
          <mxGeometry width="50" height="50" relative="1" as="geometry">
            <mxPoint x="-145" y="895" as="sourcePoint" />
            <mxPoint x="190" y="970" as="targetPoint" />
          </mxGeometry>
        </mxCell>
        <mxCell id="y9HhmYNWer4QtPoeqVv9-32" value="" style="endArrow=none;html=1;rounded=0;" parent="1" source="y9HhmYNWer4QtPoeqVv9-45" edge="1">
          <mxGeometry width="50" height="50" relative="1" as="geometry">
            <mxPoint x="-110" y="857" as="sourcePoint" />
            <mxPoint x="180" y="960" as="targetPoint" />
          </mxGeometry>
        </mxCell>
        <mxCell id="y9HhmYNWer4QtPoeqVv9-33" value="" style="endArrow=none;html=1;rounded=0;entryX=0;entryY=0.5;entryDx=0;entryDy=0;" parent="1" source="y9HhmYNWer4QtPoeqVv9-48" target="y9HhmYNWer4QtPoeqVv9-73" edge="1">
          <mxGeometry width="50" height="50" relative="1" as="geometry">
            <mxPoint x="-65.14" y="820.4300000000001" as="sourcePoint" />
            <mxPoint x="180" y="950" as="targetPoint" />
          </mxGeometry>
        </mxCell>
        <mxCell id="y9HhmYNWer4QtPoeqVv9-34" value="" style="endArrow=none;html=1;rounded=0;" parent="1" edge="1">
          <mxGeometry width="50" height="50" relative="1" as="geometry">
            <mxPoint x="-39.53" y="785.0000000000001" as="sourcePoint" />
            <mxPoint x="182.47" y="955" as="targetPoint" />
          </mxGeometry>
        </mxCell>
        <mxCell id="y9HhmYNWer4QtPoeqVv9-35" value="" style="endArrow=none;html=1;rounded=0;entryX=0;entryY=0;entryDx=0;entryDy=0;" parent="1" source="y9HhmYNWer4QtPoeqVv9-53" target="y9HhmYNWer4QtPoeqVv9-73" edge="1">
          <mxGeometry width="50" height="50" relative="1" as="geometry">
            <mxPoint x="28" y="750.4300000000001" as="sourcePoint" />
            <mxPoint x="190" y="950" as="targetPoint" />
          </mxGeometry>
        </mxCell>
        <mxCell id="y9HhmYNWer4QtPoeqVv9-36" value="" style="endArrow=none;html=1;rounded=0;entryX=0;entryY=0;entryDx=0;entryDy=0;" parent="1" target="y9HhmYNWer4QtPoeqVv9-73" edge="1">
          <mxGeometry width="50" height="50" relative="1" as="geometry">
            <mxPoint x="100" y="800" as="sourcePoint" />
            <mxPoint x="190" y="910" as="targetPoint" />
          </mxGeometry>
        </mxCell>
        <mxCell id="y9HhmYNWer4QtPoeqVv9-41" value="" style="endArrow=none;html=1;rounded=0;" parent="1" target="y9HhmYNWer4QtPoeqVv9-40" edge="1">
          <mxGeometry width="50" height="50" relative="1" as="geometry">
            <mxPoint x="-145" y="895" as="sourcePoint" />
            <mxPoint x="70" y="940" as="targetPoint" />
          </mxGeometry>
        </mxCell>
        <mxCell id="y9HhmYNWer4QtPoeqVv9-46" value="" style="endArrow=none;html=1;rounded=0;entryX=1;entryY=0.5;entryDx=0;entryDy=0;entryPerimeter=0;" parent="1" target="y9HhmYNWer4QtPoeqVv9-45" edge="1">
          <mxGeometry width="50" height="50" relative="1" as="geometry">
            <mxPoint x="-110" y="857" as="sourcePoint" />
            <mxPoint x="85" y="930" as="targetPoint" />
          </mxGeometry>
        </mxCell>
        <mxCell id="y9HhmYNWer4QtPoeqVv9-45" value="" style="shape=requiredInterface;html=1;verticalLabelPosition=bottom;sketch=0;rotation=-165;" parent="1" vertex="1">
          <mxGeometry x="-60" y="870" width="10" height="20" as="geometry" />
        </mxCell>
        <mxCell id="y9HhmYNWer4QtPoeqVv9-49" value="" style="endArrow=none;html=1;rounded=0;entryX=1;entryY=0.5;entryDx=0;entryDy=0;entryPerimeter=0;" parent="1" target="y9HhmYNWer4QtPoeqVv9-48" edge="1">
          <mxGeometry width="50" height="50" relative="1" as="geometry">
            <mxPoint x="-65.14" y="820.4300000000001" as="sourcePoint" />
            <mxPoint x="94" y="925" as="targetPoint" />
          </mxGeometry>
        </mxCell>
        <mxCell id="y9HhmYNWer4QtPoeqVv9-48" value="" style="shape=requiredInterface;html=1;verticalLabelPosition=bottom;sketch=0;rotation=-145;" parent="1" vertex="1">
          <mxGeometry x="-30" y="840" width="10" height="20" as="geometry" />
        </mxCell>
        <mxCell id="y9HhmYNWer4QtPoeqVv9-51" value="" style="shape=requiredInterface;html=1;verticalLabelPosition=bottom;sketch=0;rotation=-135;" parent="1" vertex="1">
          <mxGeometry x="-10" y="800.4300000000001" width="10" height="20" as="geometry" />
        </mxCell>
        <mxCell id="y9HhmYNWer4QtPoeqVv9-54" value="" style="endArrow=none;html=1;rounded=0;entryX=1;entryY=0.5;entryDx=0;entryDy=0;entryPerimeter=0;" parent="1" target="y9HhmYNWer4QtPoeqVv9-53" edge="1">
          <mxGeometry width="50" height="50" relative="1" as="geometry">
            <mxPoint x="28" y="750.4300000000001" as="sourcePoint" />
            <mxPoint x="120" y="925" as="targetPoint" />
          </mxGeometry>
        </mxCell>
        <mxCell id="y9HhmYNWer4QtPoeqVv9-53" value="" style="shape=requiredInterface;html=1;verticalLabelPosition=bottom;sketch=0;rotation=-126;" parent="1" vertex="1">
          <mxGeometry x="50" y="790" width="10" height="20" as="geometry" />
        </mxCell>
        <mxCell id="y9HhmYNWer4QtPoeqVv9-56" value="" style="endArrow=none;html=1;rounded=0;entryX=1;entryY=0.5;entryDx=0;entryDy=0;entryPerimeter=0;exitX=0.5;exitY=0.979;exitDx=0;exitDy=0;exitPerimeter=0;" parent="1" source="y9HhmYNWer4QtPoeqVv9-26" target="y9HhmYNWer4QtPoeqVv9-55" edge="1">
          <mxGeometry width="50" height="50" relative="1" as="geometry">
            <mxPoint x="90" y="750" as="sourcePoint" />
            <mxPoint x="128" y="926" as="targetPoint" />
          </mxGeometry>
        </mxCell>
        <mxCell id="y9HhmYNWer4QtPoeqVv9-55" value="" style="shape=requiredInterface;html=1;verticalLabelPosition=bottom;sketch=0;rotation=-100;" parent="1" vertex="1">
          <mxGeometry x="92" y="780.4300000000001" width="10" height="20" as="geometry" />
        </mxCell>
        <mxCell id="y9HhmYNWer4QtPoeqVv9-58" value="Animal" style="ellipse;whiteSpace=wrap;html=1;" parent="1" vertex="1">
          <mxGeometry x="31.07" y="680" width="60.93" height="30" as="geometry" />
        </mxCell>
        <mxCell id="y9HhmYNWer4QtPoeqVv9-59" value="Name" style="ellipse;whiteSpace=wrap;html=1;" parent="1" vertex="1">
          <mxGeometry x="-20" y="655" width="49.07" height="30" as="geometry" />
        </mxCell>
        <mxCell id="y9HhmYNWer4QtPoeqVv9-60" value="Organic" style="ellipse;whiteSpace=wrap;html=1;" parent="1" vertex="1">
          <mxGeometry x="-68" y="685" width="60" height="30" as="geometry" />
        </mxCell>
        <mxCell id="y9HhmYNWer4QtPoeqVv9-61" value="Scent" style="ellipse;whiteSpace=wrap;html=1;" parent="1" vertex="1">
          <mxGeometry x="-144" y="700" width="60" height="30" as="geometry" />
        </mxCell>
        <mxCell id="y9HhmYNWer4QtPoeqVv9-62" value="Type" style="ellipse;whiteSpace=wrap;html=1;" parent="1" vertex="1">
          <mxGeometry x="-195" y="740" width="60" height="30" as="geometry" />
        </mxCell>
        <mxCell id="y9HhmYNWer4QtPoeqVv9-63" value="Active Ingredient" style="ellipse;whiteSpace=wrap;html=1;" parent="1" vertex="1">
          <mxGeometry x="-298.86" y="770" width="108.86" height="29.57" as="geometry" />
        </mxCell>
        <mxCell id="y9HhmYNWer4QtPoeqVv9-64" value="Category" style="ellipse;whiteSpace=wrap;html=1;" parent="1" vertex="1">
          <mxGeometry x="-290" y="855" width="70" height="30" as="geometry" />
        </mxCell>
        <mxCell id="y9HhmYNWer4QtPoeqVv9-65" value="" style="endArrow=none;html=1;rounded=0;entryX=0;entryY=0.25;entryDx=0;entryDy=0;" parent="1" target="y9HhmYNWer4QtPoeqVv9-24" edge="1">
          <mxGeometry width="50" height="50" relative="1" as="geometry">
            <mxPoint x="-229.86" y="880" as="sourcePoint" />
            <mxPoint x="-179.86" y="830" as="targetPoint" />
          </mxGeometry>
        </mxCell>
        <mxCell id="y9HhmYNWer4QtPoeqVv9-66" value="" style="endArrow=none;html=1;rounded=0;exitX=0.25;exitY=0;exitDx=0;exitDy=0;" parent="1" source="y9HhmYNWer4QtPoeqVv9-26" edge="1">
          <mxGeometry width="50" height="50" relative="1" as="geometry">
            <mxPoint x="20" y="760" as="sourcePoint" />
            <mxPoint x="70" y="710" as="targetPoint" />
          </mxGeometry>
        </mxCell>
        <mxCell id="y9HhmYNWer4QtPoeqVv9-67" value="" style="endArrow=none;html=1;rounded=0;entryX=0.65;entryY=0.984;entryDx=0;entryDy=0;entryPerimeter=0;exitX=0.5;exitY=0;exitDx=0;exitDy=0;" parent="1" source="y9HhmYNWer4QtPoeqVv9-28" target="y9HhmYNWer4QtPoeqVv9-59" edge="1">
          <mxGeometry width="50" height="50" relative="1" as="geometry">
            <mxPoint x="-40" y="740" as="sourcePoint" />
            <mxPoint x="10" y="690" as="targetPoint" />
          </mxGeometry>
        </mxCell>
        <mxCell id="y9HhmYNWer4QtPoeqVv9-68" value="" style="endArrow=none;html=1;rounded=0;exitX=0.25;exitY=0;exitDx=0;exitDy=0;" parent="1" source="y9HhmYNWer4QtPoeqVv9-28" edge="1">
          <mxGeometry width="50" height="50" relative="1" as="geometry">
            <mxPoint x="-60" y="755" as="sourcePoint" />
            <mxPoint x="-10" y="705" as="targetPoint" />
          </mxGeometry>
        </mxCell>
        <mxCell id="y9HhmYNWer4QtPoeqVv9-69" value="" style="endArrow=none;html=1;rounded=0;exitX=0.359;exitY=-0.089;exitDx=0;exitDy=0;entryX=0.721;entryY=0.958;entryDx=0;entryDy=0;entryPerimeter=0;exitPerimeter=0;" parent="1" source="y9HhmYNWer4QtPoeqVv9-27" target="y9HhmYNWer4QtPoeqVv9-61" edge="1">
          <mxGeometry width="50" height="50" relative="1" as="geometry">
            <mxPoint x="-145" y="779.5699999999999" as="sourcePoint" />
            <mxPoint x="-95" y="729.5699999999999" as="targetPoint" />
          </mxGeometry>
        </mxCell>
        <mxCell id="y9HhmYNWer4QtPoeqVv9-70" value="" style="endArrow=none;html=1;rounded=0;entryX=1;entryY=1;entryDx=0;entryDy=0;exitX=0.25;exitY=0;exitDx=0;exitDy=0;" parent="1" source="y9HhmYNWer4QtPoeqVv9-29" target="y9HhmYNWer4QtPoeqVv9-62" edge="1">
          <mxGeometry width="50" height="50" relative="1" as="geometry">
            <mxPoint x="-170" y="830" as="sourcePoint" />
            <mxPoint x="-120" y="780" as="targetPoint" />
          </mxGeometry>
        </mxCell>
        <mxCell id="y9HhmYNWer4QtPoeqVv9-71" value="" style="endArrow=none;html=1;rounded=0;entryX=0;entryY=0;entryDx=0;entryDy=0;exitX=1;exitY=1;exitDx=0;exitDy=0;" parent="1" source="y9HhmYNWer4QtPoeqVv9-63" target="y9HhmYNWer4QtPoeqVv9-25" edge="1">
          <mxGeometry width="50" height="50" relative="1" as="geometry">
            <mxPoint x="-204" y="815.4300000000001" as="sourcePoint" />
            <mxPoint x="-154" y="765.4300000000001" as="targetPoint" />
          </mxGeometry>
        </mxCell>
        <mxCell id="y9HhmYNWer4QtPoeqVv9-73" value="d" style="ellipse;whiteSpace=wrap;html=1;" parent="1" vertex="1">
          <mxGeometry x="182" y="944.57" width="34" height="29.57" as="geometry" />
        </mxCell>
        <mxCell id="y9HhmYNWer4QtPoeqVv9-74" value="" style="endArrow=none;html=1;rounded=0;entryX=1;entryY=1;entryDx=0;entryDy=0;" parent="1" target="y9HhmYNWer4QtPoeqVv9-73" edge="1">
          <mxGeometry width="50" height="50" relative="1" as="geometry">
            <mxPoint x="280" y="1040" as="sourcePoint" />
            <mxPoint x="216" y="964.57" as="targetPoint" />
          </mxGeometry>
        </mxCell>
        <mxCell id="y9HhmYNWer4QtPoeqVv9-75" value="Dosage" style="ellipse;whiteSpace=wrap;html=1;" parent="1" vertex="1">
          <mxGeometry x="-290" y="810" width="59" height="30" as="geometry" />
        </mxCell>
        <mxCell id="y9HhmYNWer4QtPoeqVv9-76" value="" style="endArrow=none;html=1;rounded=0;entryX=0;entryY=0.25;entryDx=0;entryDy=0;" parent="1" target="y9HhmYNWer4QtPoeqVv9-25" edge="1">
          <mxGeometry width="50" height="50" relative="1" as="geometry">
            <mxPoint x="-231" y="830.4300000000001" as="sourcePoint" />
            <mxPoint x="-181" y="780.4300000000001" as="targetPoint" />
          </mxGeometry>
        </mxCell>
        <mxCell id="y9HhmYNWer4QtPoeqVv9-77" value="Product Type" style="text;html=1;align=center;verticalAlign=middle;resizable=0;points=[];autosize=1;strokeColor=none;fillColor=none;" parent="1" vertex="1">
          <mxGeometry x="126" y="974.14" width="90" height="30" as="geometry" />
        </mxCell>
        <mxCell id="lCz2tFZUgEaHDEE969v2-13" value="ADDRESS" style="whiteSpace=wrap;html=1;align=center;fillColor=#C4C4C4;strokeColor=#36393d;" vertex="1" parent="1">
          <mxGeometry x="1260" y="635" width="100" height="40" as="geometry" />
        </mxCell>
        <mxCell id="lCz2tFZUgEaHDEE969v2-14" value="" style="shape=link;html=1;rounded=0;entryX=0;entryY=0;entryDx=0;entryDy=0;exitX=1;exitY=0.5;exitDx=0;exitDy=0;" edge="1" parent="1" source="lCz2tFZUgEaHDEE969v2-16" target="lCz2tFZUgEaHDEE969v2-13">
          <mxGeometry relative="1" as="geometry">
            <mxPoint x="1030" y="660" as="sourcePoint" />
            <mxPoint x="610" y="650" as="targetPoint" />
          </mxGeometry>
        </mxCell>
        <mxCell id="lCz2tFZUgEaHDEE969v2-15" value="1" style="resizable=0;html=1;whiteSpace=wrap;align=right;verticalAlign=bottom;" connectable="0" vertex="1" parent="lCz2tFZUgEaHDEE969v2-14">
          <mxGeometry x="1" relative="1" as="geometry">
            <mxPoint x="-130" y="40" as="offset" />
          </mxGeometry>
        </mxCell>
        <mxCell id="lCz2tFZUgEaHDEE969v2-16" value="RECEIVES ORDER" style="rhombus;whiteSpace=wrap;html=1;" vertex="1" parent="1">
          <mxGeometry x="955" y="540" width="150" height="60" as="geometry" />
        </mxCell>
        <mxCell id="lCz2tFZUgEaHDEE969v2-17" value="" style="shape=link;html=1;rounded=0;entryX=0;entryY=0.5;entryDx=0;entryDy=0;exitX=1;exitY=0.75;exitDx=0;exitDy=0;" edge="1" parent="1" source="4mAQNpWLt4tQU0ZCI15O-2" target="lCz2tFZUgEaHDEE969v2-16">
          <mxGeometry relative="1" as="geometry">
            <mxPoint x="1035" y="660" as="sourcePoint" />
            <mxPoint x="1350" y="915" as="targetPoint" />
          </mxGeometry>
        </mxCell>
        <mxCell id="lCz2tFZUgEaHDEE969v2-19" value="M" style="text;html=1;align=center;verticalAlign=middle;resizable=0;points=[];autosize=1;strokeColor=none;fillColor=none;" vertex="1" parent="1">
          <mxGeometry x="935" y="540" width="30" height="30" as="geometry" />
        </mxCell>
        <mxCell id="lCz2tFZUgEaHDEE969v2-20" value="N" style="resizable=0;html=1;whiteSpace=wrap;align=right;verticalAlign=bottom;" connectable="0" vertex="1" parent="1">
          <mxGeometry x="974.9982985053762" y="509.99563082861437" as="geometry">
            <mxPoint x="137" y="52" as="offset" />
          </mxGeometry>
        </mxCell>
        <mxCell id="lCz2tFZUgEaHDEE969v2-21" value="DELIVERED TO" style="rhombus;whiteSpace=wrap;html=1;" vertex="1" parent="1">
          <mxGeometry x="980" y="650" width="150" height="60" as="geometry" />
        </mxCell>
        <mxCell id="lCz2tFZUgEaHDEE969v2-22" value="" style="shape=link;html=1;rounded=0;entryX=1;entryY=0.5;entryDx=0;entryDy=0;exitX=0;exitY=0.5;exitDx=0;exitDy=0;" edge="1" parent="1" source="lCz2tFZUgEaHDEE969v2-21" target="4mAQNpWLt4tQU0ZCI15O-13">
          <mxGeometry relative="1" as="geometry">
            <mxPoint x="1115" y="580" as="sourcePoint" />
            <mxPoint x="1270" y="645" as="targetPoint" />
          </mxGeometry>
        </mxCell>
        <mxCell id="lCz2tFZUgEaHDEE969v2-23" value="N" style="resizable=0;html=1;whiteSpace=wrap;align=right;verticalAlign=bottom;" connectable="0" vertex="1" parent="lCz2tFZUgEaHDEE969v2-22">
          <mxGeometry x="1" relative="1" as="geometry">
            <mxPoint x="59" y="-355" as="offset" />
          </mxGeometry>
        </mxCell>
        <mxCell id="lCz2tFZUgEaHDEE969v2-26" value="LOCATED AT" style="rhombus;whiteSpace=wrap;html=1;" vertex="1" parent="1">
          <mxGeometry x="842.5" y="839.1800000000001" width="150" height="60" as="geometry" />
        </mxCell>
        <mxCell id="lCz2tFZUgEaHDEE969v2-29" value="" style="shape=link;html=1;rounded=0;entryX=0;entryY=0.75;entryDx=0;entryDy=0;exitX=1;exitY=0.5;exitDx=0;exitDy=0;" edge="1" parent="1" source="lCz2tFZUgEaHDEE969v2-21" target="lCz2tFZUgEaHDEE969v2-13">
          <mxGeometry relative="1" as="geometry">
            <mxPoint x="1115" y="580" as="sourcePoint" />
            <mxPoint x="1270" y="645" as="targetPoint" />
          </mxGeometry>
        </mxCell>
        <mxCell id="lCz2tFZUgEaHDEE969v2-30" value="1" style="resizable=0;html=1;whiteSpace=wrap;align=right;verticalAlign=bottom;" connectable="0" vertex="1" parent="lCz2tFZUgEaHDEE969v2-29">
          <mxGeometry x="1" relative="1" as="geometry">
            <mxPoint x="-270" y="195" as="offset" />
          </mxGeometry>
        </mxCell>
        <mxCell id="lCz2tFZUgEaHDEE969v2-31" value="" style="shape=link;html=1;rounded=0;entryX=0;entryY=0.25;entryDx=0;entryDy=0;exitX=1;exitY=0.5;exitDx=0;exitDy=0;" edge="1" parent="1" source="lCz2tFZUgEaHDEE969v2-26" target="lCz2tFZUgEaHDEE969v2-13">
          <mxGeometry relative="1" as="geometry">
            <mxPoint x="1140" y="690" as="sourcePoint" />
            <mxPoint x="1270" y="675" as="targetPoint" />
          </mxGeometry>
        </mxCell>
        <mxCell id="lCz2tFZUgEaHDEE969v2-32" value="1" style="resizable=0;html=1;whiteSpace=wrap;align=right;verticalAlign=bottom;" connectable="0" vertex="1" parent="lCz2tFZUgEaHDEE969v2-31">
          <mxGeometry x="1" relative="1" as="geometry">
            <mxPoint x="-269" y="35" as="offset" />
          </mxGeometry>
        </mxCell>
        <mxCell id="lCz2tFZUgEaHDEE969v2-33" value="" style="shape=link;html=1;rounded=0;entryX=0;entryY=0.5;entryDx=0;entryDy=0;exitX=1;exitY=0.75;exitDx=0;exitDy=0;" edge="1" parent="1" source="4mAQNpWLt4tQU0ZCI15O-153" target="lCz2tFZUgEaHDEE969v2-26">
          <mxGeometry relative="1" as="geometry">
            <mxPoint x="1150" y="700" as="sourcePoint" />
            <mxPoint x="1280" y="685" as="targetPoint" />
          </mxGeometry>
        </mxCell>
        <mxCell id="lCz2tFZUgEaHDEE969v2-34" value="N" style="resizable=0;html=1;whiteSpace=wrap;align=right;verticalAlign=bottom;" connectable="0" vertex="1" parent="lCz2tFZUgEaHDEE969v2-33">
          <mxGeometry x="1" relative="1" as="geometry">
            <mxPoint x="-342" y="-29" as="offset" />
          </mxGeometry>
        </mxCell>
        <mxCell id="lCz2tFZUgEaHDEE969v2-35" value="&lt;span style=&quot;border-bottom: 1px dotted&quot;&gt;Promotion Code&lt;/span&gt;" style="ellipse;whiteSpace=wrap;html=1;align=center;" vertex="1" parent="1">
          <mxGeometry x="110" y="1272.52" width="100" height="40" as="geometry" />
        </mxCell>
        <mxCell id="lCz2tFZUgEaHDEE969v2-36" value="PAYS WITH" style="shape=rhombus;perimeter=rhombusPerimeter;whiteSpace=wrap;html=1;align=center;" vertex="1" parent="1">
          <mxGeometry x="630" y="275" width="115" height="60" as="geometry" />
        </mxCell>
        <mxCell id="lCz2tFZUgEaHDEE969v2-37" value="" style="shape=link;html=1;rounded=0;entryX=0;entryY=0.5;entryDx=0;entryDy=0;exitX=1;exitY=0.5;exitDx=0;exitDy=0;" edge="1" parent="1" source="4mAQNpWLt4tQU0ZCI15O-2" target="lCz2tFZUgEaHDEE969v2-36">
          <mxGeometry relative="1" as="geometry">
            <mxPoint x="360" y="310" as="sourcePoint" />
            <mxPoint x="965" y="580" as="targetPoint" />
          </mxGeometry>
        </mxCell>
        <mxCell id="lCz2tFZUgEaHDEE969v2-38" value="" style="endArrow=none;html=1;rounded=0;exitX=1;exitY=0.5;exitDx=0;exitDy=0;entryX=0;entryY=0.25;entryDx=0;entryDy=0;" edge="1" parent="1" source="lCz2tFZUgEaHDEE969v2-36" target="4mAQNpWLt4tQU0ZCI15O-125">
          <mxGeometry relative="1" as="geometry">
            <mxPoint x="1000" y="305" as="sourcePoint" />
            <mxPoint x="1090" y="305" as="targetPoint" />
          </mxGeometry>
        </mxCell>
        <mxCell id="lCz2tFZUgEaHDEE969v2-39" value="M" style="resizable=0;html=1;whiteSpace=wrap;align=right;verticalAlign=bottom;" connectable="0" vertex="1" parent="1">
          <mxGeometry x="769.7115640473949" y="315.0508260033853" as="geometry">
            <mxPoint x="-133" y="-17" as="offset" />
          </mxGeometry>
        </mxCell>
        <mxCell id="lCz2tFZUgEaHDEE969v2-40" value="OFFERS" style="shape=rhombus;double=1;perimeter=rhombusPerimeter;whiteSpace=wrap;html=1;align=center;" vertex="1" parent="1">
          <mxGeometry x="300" y="1348.38" width="120" height="60" as="geometry" />
        </mxCell>
      </root>
    </mxGraphModel>
  </diagram>
</mxfile>
